<?xml version="1.0" standalone="no"?>
<!DOCTYPE svg PUBLIC "-//W3C//DTD SVG 20010904//EN"
 "http://www.w3.org/TR/2001/REC-SVG-20010904/DTD/svg10.dtd">
<svg version="1.0" xmlns="http://www.w3.org/2000/svg"
 width="640.000000pt" height="640.000000pt" viewBox="0 0 640.000000 640.000000"
 preserveAspectRatio="xMidYMid meet">
<metadata>
Created by potrace 1.11, written by Peter Selinger 2001-2013
</metadata>
<g transform="translate(0.000000,640.000000) scale(0.100000,-0.100000)"
fill="#000000" stroke="none">
<path d="M3005 6394 c-556 -41 -1064 -205 -1510 -488 -324 -205 -616 -473
-842 -771 -633 -836 -817 -1920 -497 -2916 370 -1149 1353 -1989 2549 -2178
351 -55 639 -55 990 0 1232 194 2235 1080 2580 2279 88 304 119 536 119 880 0
283 -11 398 -60 637 -135 662 -482 1275 -974 1721 -502 456 -1089 726 -1770
817 -110 15 -481 27 -585 19z m1276 -1874 l339 0 0 -1055 0 -1055 440 0 440 0
0 -270 0 -270 -638 0 c-351 0 -849 3 -1105 7 l-467 6 0 999 c0 549 -3 998 -7
998 -5 0 -136 -450 -292 -1000 l-285 -1000 -217 0 c-199 0 -218 2 -223 18 -3
9 -120 449 -261 977 -140 528 -262 974 -269 990 -13 26 -15 -98 -15 -977 l-1
-1008 -305 0 -305 0 0 1320 0 1320 522 -2 521 -3 172 -811 c95 -446 175 -817
177 -825 4 -10 9 -6 16 11 6 14 92 378 192 810 100 432 183 793 186 802 5 17
40 18 512 20 279 2 513 2 520 1 8 -2 166 -3 353 -3z"/>
</g>
</svg>
